<svg id="visual" viewBox="0 0 900 600" width="900" height="600" xmlns="http://www.w3.org/2000/svg" xmlns:xlink="http://www.w3.org/1999/xlink" version="1.1"><g stroke-width="1" stroke-linejoin="bevel"><path d="M442.1 316L480.9 359L507.9 305Z" fill="#0c2435" stroke="#0c2435"></path><path d="M442.1 316L404.1 382L480.9 359Z" fill="#205a7a" stroke="#205a7a"></path><path d="M570.7 378L555.7 260L507.9 305Z" fill="#112e42" stroke="#112e42"></path><path d="M507.9 305L418.1 235L442.1 316Z" fill="#1d4e6b" stroke="#1d4e6b"></path><path d="M490.9 189L418.1 235L507.9 305Z" fill="#297ea6" stroke="#297ea6"></path><path d="M442.1 316L343.3 282L404.1 382Z" fill="#277297" stroke="#277297"></path><path d="M482.9 445L570.7 378L480.9 359Z" fill="#1d4e6b" stroke="#1d4e6b"></path><path d="M480.9 359L570.7 378L507.9 305Z" fill="#297ea6" stroke="#297ea6"></path><path d="M404.1 382L482.9 445L480.9 359Z" fill="#246688" stroke="#246688"></path><path d="M555.7 260L490.9 189L507.9 305Z" fill="#205a7a" stroke="#205a7a"></path><path d="M306.3 229L343.3 282L418.1 235Z" fill="#297ea6" stroke="#297ea6"></path><path d="M418.1 235L343.3 282L442.1 316Z" fill="#19435d" stroke="#19435d"></path><path d="M555.7 260L543.7 194L490.9 189Z" fill="#112e42" stroke="#112e42"></path><path d="M355.3 435L391.1 442L404.1 382Z" fill="#15384f" stroke="#15384f"></path><path d="M404.1 382L391.1 442L482.9 445Z" fill="#277297" stroke="#277297"></path><path d="M570.7 378L624.5 274L555.7 260Z" fill="#1d4e6b" stroke="#1d4e6b"></path><path d="M555.7 260L555.7 178L543.7 194Z" fill="#1d4e6b" stroke="#1d4e6b"></path><path d="M543.7 194L519.9 173L490.9 189Z" fill="#1d4e6b" stroke="#1d4e6b"></path><path d="M624.5 274L555.7 178L555.7 260Z" fill="#19435d" stroke="#19435d"></path><path d="M543.7 194L555.7 178L519.9 173Z" fill="#246688" stroke="#246688"></path><path d="M299.3 343L355.3 435L404.1 382Z" fill="#297ea6" stroke="#297ea6"></path><path d="M505.9 526L542.7 487L482.9 445Z" fill="#15384f" stroke="#15384f"></path><path d="M482.9 445L542.7 487L570.7 378Z" fill="#19435d" stroke="#19435d"></path><path d="M570.7 378L675.5 343L624.5 274Z" fill="#205a7a" stroke="#205a7a"></path><path d="M505.9 526L482.9 445L410.1 556Z" fill="#081a28" stroke="#081a28"></path><path d="M343.3 282L299.3 343L404.1 382Z" fill="#277297" stroke="#277297"></path><path d="M302.3 143L306.3 229L418.1 235Z" fill="#205a7a" stroke="#205a7a"></path><path d="M343.3 282L277.5 257L299.3 343Z" fill="#112e42" stroke="#112e42"></path><path d="M442.1 120L418.1 235L490.9 189Z" fill="#19435d" stroke="#19435d"></path><path d="M673.5 440L675.5 343L570.7 378Z" fill="#277297" stroke="#277297"></path><path d="M624.5 274L618.5 152L555.7 178Z" fill="#246688" stroke="#246688"></path><path d="M410.1 556L482.9 445L391.1 442Z" fill="#246688" stroke="#246688"></path><path d="M526.9 47L442.1 120L519.9 173Z" fill="#15384f" stroke="#15384f"></path><path d="M519.9 173L442.1 120L490.9 189Z" fill="#1d4e6b" stroke="#1d4e6b"></path><path d="M306.3 229L277.5 257L343.3 282Z" fill="#19435d" stroke="#19435d"></path><path d="M277.5 257L261.5 323L299.3 343Z" fill="#081a28" stroke="#081a28"></path><path d="M299.3 343L263.5 399L355.3 435Z" fill="#15384f" stroke="#15384f"></path><path d="M714.4 311L678.5 233L624.5 274Z" fill="#00101c" stroke="#00101c"></path><path d="M555.7 178L548.7 55L519.9 173Z" fill="#297ea6" stroke="#297ea6"></path><path d="M678.5 233L618.5 152L624.5 274Z" fill="#15384f" stroke="#15384f"></path><path d="M261.5 323L263.5 399L299.3 343Z" fill="#297ea6" stroke="#297ea6"></path><path d="M298.3 499L410.1 556L391.1 442Z" fill="#15384f" stroke="#15384f"></path><path d="M661.5 551L673.5 440L542.7 487Z" fill="#19435d" stroke="#19435d"></path><path d="M542.7 487L673.5 440L570.7 378Z" fill="#081a28" stroke="#081a28"></path><path d="M675.5 343L714.4 311L624.5 274Z" fill="#297ea6" stroke="#297ea6"></path><path d="M505.9 526L544.7 543L542.7 487Z" fill="#246688" stroke="#246688"></path><path d="M759.4 382L714.4 311L675.5 343Z" fill="#15384f" stroke="#15384f"></path><path d="M298.3 499L391.1 442L355.3 435Z" fill="#081a28" stroke="#081a28"></path><path d="M505.9 526L454.9 600L544.7 543Z" fill="#205a7a" stroke="#205a7a"></path><path d="M526.9 47L412.1 86L442.1 120Z" fill="#081a28" stroke="#081a28"></path><path d="M442.1 120L302.3 143L418.1 235Z" fill="#0c2435" stroke="#0c2435"></path><path d="M306.3 229L248.5 146L277.5 257Z" fill="#246688" stroke="#246688"></path><path d="M263.5 399L298.3 499L355.3 435Z" fill="#0c2435" stroke="#0c2435"></path><path d="M412.1 86L302.3 143L442.1 120Z" fill="#277297" stroke="#277297"></path><path d="M195.6 238L193.6 328L261.5 323Z" fill="#277297" stroke="#277297"></path><path d="M213.5 456L278.5 510L298.3 499Z" fill="#246688" stroke="#246688"></path><path d="M298.3 499L333.3 600L410.1 556Z" fill="#246688" stroke="#246688"></path><path d="M422.1 600L454.9 600L410.1 556Z" fill="#1d4e6b" stroke="#1d4e6b"></path><path d="M410.1 556L454.9 600L505.9 526Z" fill="#00101c" stroke="#00101c"></path><path d="M678.5 45L548.7 55L618.5 152Z" fill="#0c2435" stroke="#0c2435"></path><path d="M618.5 152L548.7 55L555.7 178Z" fill="#19435d" stroke="#19435d"></path><path d="M548.7 55L526.9 47L519.9 173Z" fill="#15384f" stroke="#15384f"></path><path d="M333.3 600L422.1 600L410.1 556Z" fill="#277297" stroke="#277297"></path><path d="M661.5 551L720.4 469L673.5 440Z" fill="#081a28" stroke="#081a28"></path><path d="M673.5 440L759.4 382L675.5 343Z" fill="#1d4e6b" stroke="#1d4e6b"></path><path d="M661.5 551L542.7 487L544.7 543Z" fill="#15384f" stroke="#15384f"></path><path d="M261.5 323L193.6 328L263.5 399Z" fill="#00101c" stroke="#00101c"></path><path d="M263.5 399L213.5 456L298.3 499Z" fill="#00101c" stroke="#00101c"></path><path d="M195.6 238L261.5 323L277.5 257Z" fill="#297ea6" stroke="#297ea6"></path><path d="M720.4 469L759.4 382L673.5 440Z" fill="#15384f" stroke="#15384f"></path><path d="M714.4 311L768.4 254L678.5 233Z" fill="#081a28" stroke="#081a28"></path><path d="M216.5 95L248.5 146L302.3 143Z" fill="#297ea6" stroke="#297ea6"></path><path d="M302.3 143L248.5 146L306.3 229Z" fill="#15384f" stroke="#15384f"></path><path d="M454.9 600L564.7 600L544.7 543Z" fill="#0c2435" stroke="#0c2435"></path><path d="M564.7 600L661.5 551L544.7 543Z" fill="#081a28" stroke="#081a28"></path><path d="M248.5 146L195.6 238L277.5 257Z" fill="#205a7a" stroke="#205a7a"></path><path d="M176.6 406L213.5 456L263.5 399Z" fill="#246688" stroke="#246688"></path><path d="M827.2 308L768.4 254L714.4 311Z" fill="#277297" stroke="#277297"></path><path d="M678.5 233L740.4 178L618.5 152Z" fill="#19435d" stroke="#19435d"></path><path d="M768.4 254L740.4 178L678.5 233Z" fill="#1d4e6b" stroke="#1d4e6b"></path><path d="M412.1 86L329.3 53L302.3 143Z" fill="#00101c" stroke="#00101c"></path><path d="M399.1 0L329.3 53L412.1 86Z" fill="#15384f" stroke="#15384f"></path><path d="M143.6 422L176.6 406L193.6 328Z" fill="#277297" stroke="#277297"></path><path d="M193.6 328L176.6 406L263.5 399Z" fill="#297ea6" stroke="#297ea6"></path><path d="M242.5 600L333.3 600L278.5 510Z" fill="#246688" stroke="#246688"></path><path d="M278.5 510L333.3 600L298.3 499Z" fill="#1d4e6b" stroke="#1d4e6b"></path><path d="M661.5 551L751.4 486L720.4 469Z" fill="#1d4e6b" stroke="#1d4e6b"></path><path d="M720.4 469L787.2 428L759.4 382Z" fill="#1d4e6b" stroke="#1d4e6b"></path><path d="M542.7 0L451.9 0L526.9 47Z" fill="#246688" stroke="#246688"></path><path d="M526.9 47L451.9 0L412.1 86Z" fill="#19435d" stroke="#19435d"></path><path d="M564.7 600L650.5 600L661.5 551Z" fill="#081a28" stroke="#081a28"></path><path d="M766.4 600L778.2 496L751.4 486Z" fill="#15384f" stroke="#15384f"></path><path d="M751.4 486L787.2 428L720.4 469Z" fill="#246688" stroke="#246688"></path><path d="M759.4 382L827.2 308L714.4 311Z" fill="#112e42" stroke="#112e42"></path><path d="M677.5 0L542.7 0L548.7 55Z" fill="#19435d" stroke="#19435d"></path><path d="M548.7 55L542.7 0L526.9 47Z" fill="#15384f" stroke="#15384f"></path><path d="M451.9 0L399.1 0L412.1 86Z" fill="#297ea6" stroke="#297ea6"></path><path d="M741.4 96L678.5 45L618.5 152Z" fill="#00101c" stroke="#00101c"></path><path d="M216.5 95L302.3 143L329.3 53Z" fill="#00101c" stroke="#00101c"></path><path d="M216.5 95L198.6 118L248.5 146Z" fill="#112e42" stroke="#112e42"></path><path d="M248.5 146L198.6 118L195.6 238Z" fill="#081a28" stroke="#081a28"></path><path d="M108.8 281L143.6 422L193.6 328Z" fill="#1d4e6b" stroke="#1d4e6b"></path><path d="M224.5 0L216.5 95L329.3 53Z" fill="#112e42" stroke="#112e42"></path><path d="M766.4 600L751.4 486L661.5 551Z" fill="#205a7a" stroke="#205a7a"></path><path d="M751.4 486L778.2 496L787.2 428Z" fill="#246688" stroke="#246688"></path><path d="M176.6 406L143.6 422L213.5 456Z" fill="#1d4e6b" stroke="#1d4e6b"></path><path d="M213.5 456L187.6 533L278.5 510Z" fill="#19435d" stroke="#19435d"></path><path d="M108.8 281L193.6 328L195.6 238Z" fill="#081a28" stroke="#081a28"></path><path d="M833.2 179L741.4 96L740.4 178Z" fill="#00101c" stroke="#00101c"></path><path d="M740.4 178L741.4 96L618.5 152Z" fill="#081a28" stroke="#081a28"></path><path d="M844.2 336L759.4 382L787.2 428Z" fill="#297ea6" stroke="#297ea6"></path><path d="M844.2 336L827.2 308L759.4 382Z" fill="#246688" stroke="#246688"></path><path d="M768.4 254L837.2 217L740.4 178Z" fill="#19435d" stroke="#19435d"></path><path d="M143.6 422L187.6 533L213.5 456Z" fill="#15384f" stroke="#15384f"></path><path d="M187.6 533L242.5 600L278.5 510Z" fill="#0c2435" stroke="#0c2435"></path><path d="M399.1 0L310.3 0L329.3 53Z" fill="#205a7a" stroke="#205a7a"></path><path d="M900 348L844.2 336L900 413Z" fill="#15384f" stroke="#15384f"></path><path d="M827.2 308L837.2 217L768.4 254Z" fill="#1d4e6b" stroke="#1d4e6b"></path><path d="M101.8 218L108.8 281L195.6 238Z" fill="#081a28" stroke="#081a28"></path><path d="M900 275L837.2 217L827.2 308Z" fill="#0c2435" stroke="#0c2435"></path><path d="M754.4 0L677.5 0L678.5 45Z" fill="#112e42" stroke="#112e42"></path><path d="M678.5 45L677.5 0L548.7 55Z" fill="#205a7a" stroke="#205a7a"></path><path d="M754.4 0L678.5 45L741.4 96Z" fill="#19435d" stroke="#19435d"></path><path d="M837.2 217L833.2 179L740.4 178Z" fill="#1d4e6b" stroke="#1d4e6b"></path><path d="M216.5 95L154.6 107L198.6 118Z" fill="#112e42" stroke="#112e42"></path><path d="M198.6 118L109.8 185L195.6 238Z" fill="#00101c" stroke="#00101c"></path><path d="M134.6 0L154.6 107L216.5 95Z" fill="#277297" stroke="#277297"></path><path d="M109.8 185L101.8 218L195.6 238Z" fill="#205a7a" stroke="#205a7a"></path><path d="M154.6 107L109.8 185L198.6 118Z" fill="#19435d" stroke="#19435d"></path><path d="M650.5 600L766.4 600L661.5 551Z" fill="#0c2435" stroke="#0c2435"></path><path d="M900 413L844.2 336L787.2 428Z" fill="#277297" stroke="#277297"></path><path d="M310.3 0L224.5 0L329.3 53Z" fill="#297ea6" stroke="#297ea6"></path><path d="M900 413L787.2 428L900 499Z" fill="#297ea6" stroke="#297ea6"></path><path d="M844.2 336L900 275L827.2 308Z" fill="#112e42" stroke="#112e42"></path><path d="M837.2 217L900 197L833.2 179Z" fill="#297ea6" stroke="#297ea6"></path><path d="M42.8 385L81.8 480L143.6 422Z" fill="#19435d" stroke="#19435d"></path><path d="M143.6 422L81.8 480L187.6 533Z" fill="#246688" stroke="#246688"></path><path d="M187.6 533L145.6 600L242.5 600Z" fill="#205a7a" stroke="#205a7a"></path><path d="M42.8 385L143.6 422L108.8 281Z" fill="#081a28" stroke="#081a28"></path><path d="M900 348L900 275L844.2 336Z" fill="#081a28" stroke="#081a28"></path><path d="M834.2 68L741.4 96L833.2 179Z" fill="#19435d" stroke="#19435d"></path><path d="M834.2 68L754.4 0L741.4 96Z" fill="#15384f" stroke="#15384f"></path><path d="M87.8 564L145.6 600L187.6 533Z" fill="#112e42" stroke="#112e42"></path><path d="M900 499L787.2 428L778.2 496Z" fill="#19435d" stroke="#19435d"></path><path d="M0 303L42.8 385L108.8 281Z" fill="#00101c" stroke="#00101c"></path><path d="M0 303L108.8 281L0 245Z" fill="#205a7a" stroke="#205a7a"></path><path d="M900 142L834.2 68L833.2 179Z" fill="#081a28" stroke="#081a28"></path><path d="M900 275L900 197L837.2 217Z" fill="#19435d" stroke="#19435d"></path><path d="M766.4 600L840.2 600L778.2 496Z" fill="#205a7a" stroke="#205a7a"></path><path d="M81.8 480L87.8 564L187.6 533Z" fill="#1d4e6b" stroke="#1d4e6b"></path><path d="M0 501L87.8 564L81.8 480Z" fill="#19435d" stroke="#19435d"></path><path d="M840.2 600L900 499L778.2 496Z" fill="#0c2435" stroke="#0c2435"></path><path d="M900 197L900 142L833.2 179Z" fill="#00101c" stroke="#00101c"></path><path d="M900 0L814.2 0L834.2 68Z" fill="#00101c" stroke="#00101c"></path><path d="M834.2 68L814.2 0L754.4 0Z" fill="#00101c" stroke="#00101c"></path><path d="M224.5 0L134.6 0L216.5 95Z" fill="#205a7a" stroke="#205a7a"></path><path d="M154.6 107L90.8 38L109.8 185Z" fill="#0c2435" stroke="#0c2435"></path><path d="M0 245L108.8 281L101.8 218Z" fill="#277297" stroke="#277297"></path><path d="M0 245L101.8 218L0 179Z" fill="#246688" stroke="#246688"></path><path d="M42.8 385L0 459L81.8 480Z" fill="#112e42" stroke="#112e42"></path><path d="M134.6 0L90.8 38L154.6 107Z" fill="#297ea6" stroke="#297ea6"></path><path d="M0 179L101.8 218L109.8 185Z" fill="#19435d" stroke="#19435d"></path><path d="M900 142L900 88L834.2 68Z" fill="#112e42" stroke="#112e42"></path><path d="M0 303L0 407L42.8 385Z" fill="#0c2435" stroke="#0c2435"></path><path d="M0 407L0 459L42.8 385Z" fill="#1d4e6b" stroke="#1d4e6b"></path><path d="M0 94L0 179L109.8 185Z" fill="#1d4e6b" stroke="#1d4e6b"></path><path d="M840.2 600L900 600L900 499Z" fill="#19435d" stroke="#19435d"></path><path d="M0 459L0 501L81.8 480Z" fill="#246688" stroke="#246688"></path><path d="M0 501L48.8 600L87.8 564Z" fill="#19435d" stroke="#19435d"></path><path d="M87.8 564L48.8 600L145.6 600Z" fill="#0c2435" stroke="#0c2435"></path><path d="M134.6 0L81.8 0L90.8 38Z" fill="#205a7a" stroke="#205a7a"></path><path d="M90.8 38L0 94L109.8 185Z" fill="#081a28" stroke="#081a28"></path><path d="M0 0L0 94L90.8 38Z" fill="#297ea6" stroke="#297ea6"></path><path d="M900 88L900 0L834.2 68Z" fill="#081a28" stroke="#081a28"></path><path d="M0 501L0 600L48.8 600Z" fill="#1d4e6b" stroke="#1d4e6b"></path><path d="M81.8 0L0 0L90.8 38Z" fill="#112e42" stroke="#112e42"></path></g></svg>